<svg width="600" height="600" viewBox="0 0 600 600" fill="none" xmlns="http://www.w3.org/2000/svg">
<path d="M176.57 331.32C177.746 331.32 178.922 331.319 180.134 331.319C181.469 331.305 182.805 331.291 184.181 331.276C185.62 331.293 187.06 331.31 188.543 331.327C190.022 331.325 191.5 331.323 193.024 331.321C196.15 331.323 199.276 331.341 202.402 331.372C207.201 331.416 211.998 331.403 216.798 331.384C219.831 331.393 222.864 331.406 225.897 331.422C228.061 331.415 228.061 331.415 230.268 331.409C232.265 331.437 232.265 331.437 234.302 331.467C236.065 331.479 236.065 331.479 237.863 331.492C238.802 331.685 239.741 331.879 240.708 332.078C243.836 337.363 243.71 339.43 243.656 345.663C243.648 347.423 243.639 349.183 243.63 350.996C243.608 352.834 243.585 354.672 243.562 356.566C243.55 358.421 243.538 360.277 243.525 362.188C243.494 366.775 243.449 371.362 243.394 375.948C246.94 375.948 250.485 375.948 254.139 375.948C254.118 374.727 254.096 373.505 254.075 372.247C253.991 366.736 253.939 361.226 253.887 355.715C253.853 353.792 253.819 351.869 253.785 349.888C253.772 348.055 253.759 346.222 253.745 344.334C253.724 342.638 253.703 340.943 253.681 339.196C253.908 337.17 253.908 337.17 254.139 335.103C258.499 331.829 259.711 331.697 264.747 331.686C266.083 331.677 267.418 331.667 268.794 331.658C270.954 331.667 270.954 331.667 273.157 331.676C274.635 331.673 276.114 331.67 277.637 331.667C280.763 331.665 283.889 331.671 287.015 331.684C291.814 331.7 296.612 331.684 301.411 331.664C304.444 331.666 307.478 331.67 310.511 331.676C311.953 331.67 313.396 331.664 314.882 331.658C316.879 331.672 316.879 331.672 318.916 331.686C320.091 331.689 321.266 331.691 322.476 331.694C325.321 332.078 325.321 332.078 328.008 335.103C328.723 341.691 328.828 348.321 329.005 354.952C329.098 358.241 329.227 361.525 329.358 364.812C329.423 366.911 329.485 369.01 329.545 371.108C329.635 373.967 329.635 373.967 329.727 376.884C329.305 382.625 328.85 385.361 325.321 389.563C321.612 390.274 318.733 390.486 315.033 390.355C314.032 390.348 313.03 390.341 311.998 390.333C308.799 390.301 305.603 390.215 302.405 390.13C300.246 390.105 298.087 390.084 295.929 390.065C280.185 389.86 280.185 389.86 276.971 388.05C275.315 382.454 275.381 377.237 275.376 371.41C275.359 370.314 275.343 369.218 275.326 368.089C275.312 362.323 275.407 359.68 278.314 354.769C281.085 354.254 281.085 354.254 284.452 354.326C285.655 354.341 286.859 354.355 288.098 354.371C289.986 354.428 289.986 354.428 291.912 354.486C293.182 354.506 294.451 354.527 295.758 354.548C298.898 354.601 302.036 354.676 305.175 354.769C306.505 358.513 306.505 358.513 307.861 362.333C306.099 365.359 306.099 365.359 302.489 368.384C297.535 368.93 292.678 368.731 287.715 368.384C287.715 370.88 287.715 373.376 287.715 375.948C297.466 375.948 307.217 375.948 317.263 375.948C317.263 365.964 317.263 355.98 317.263 345.693C300.421 345.693 283.579 345.693 266.226 345.693C266.332 357.867 266.332 357.867 266.468 370.04C266.475 371.561 266.482 373.081 266.489 374.648C266.503 376.201 266.517 377.753 266.531 379.353C266.224 383.542 265.453 385.999 263.54 389.563C258.672 389.694 253.804 389.775 248.934 389.847C247.547 389.885 246.161 389.923 244.732 389.962C243.407 389.976 242.083 389.991 240.718 390.006C239.495 390.03 238.271 390.054 237.01 390.078C235.516 389.823 235.516 389.823 233.993 389.563C230.865 384.278 230.99 382.211 231.044 375.978C231.051 374.392 231.058 372.806 231.064 371.172C231.089 369.16 231.113 367.148 231.139 365.075C231.194 358.679 231.249 352.283 231.306 345.693C214.908 345.693 198.509 345.693 181.613 345.693C181.613 355.677 181.613 365.661 181.613 375.948C191.807 375.948 202.001 375.948 212.503 375.948C211.839 372.204 211.839 372.204 211.16 368.384C201.853 367.635 201.853 367.635 192.357 366.872C191.471 364.375 190.585 361.879 189.671 359.308C190.558 357.81 191.444 356.312 192.357 354.769C195.375 354.254 195.375 354.254 199.083 354.326C200.408 354.341 201.732 354.355 203.097 354.371C204.483 354.409 205.87 354.447 207.299 354.486C209.395 354.516 209.395 354.516 211.533 354.548C214.991 354.601 218.448 354.676 221.905 354.769C224.682 360.493 224.992 364.754 225.011 371.315C225.033 373.139 225.056 374.962 225.079 376.84C224.53 382.641 223.929 385.142 220.562 389.563C216.639 390.251 213.504 390.449 209.592 390.302C207.99 390.286 207.99 390.286 206.357 390.269C202.948 390.227 199.543 390.132 196.135 390.036C193.824 389.998 191.513 389.963 189.202 389.932C183.537 389.849 177.875 389.718 172.211 389.563C167.948 381.858 169.077 372.758 169.101 363.998C169.105 360.83 169.074 357.665 169.04 354.498C169.037 352.477 169.036 350.456 169.037 348.435C169.033 346.604 169.029 344.773 169.025 342.886C169.66 336.848 170.956 332.731 176.57 331.32Z" fill="#D9D4FA"/>
<path d="M428.262 133.275C436.08 138.352 443.722 143.693 451.311 149.192C453.922 151.073 456.533 152.954 459.144 154.835C460.471 155.793 461.799 156.751 463.166 157.739C469.588 162.372 476.021 166.986 482.454 171.599C483.676 172.478 484.899 173.356 486.159 174.261C491.776 178.291 497.403 182.298 503.072 186.237C504.048 186.916 505.024 187.595 506.029 188.294C507.805 189.527 509.585 190.754 511.368 191.973C526.54 202.498 526.54 202.498 528.958 210.553C531.598 224.993 523.895 235.696 517.2 247.178C514.452 251.854 511.677 256.508 508.89 261.154C505.093 267.491 501.389 273.889 497.731 280.329C497.217 281.234 496.703 282.138 496.174 283.07C495.012 285.118 493.853 287.167 492.695 289.217C495.202 292.041 499.725 291.101 503.135 291.226C506.125 292.242 506.125 292.242 508.491 295.38C510.515 300.766 510.817 305.492 510.742 311.246C510.727 312.916 510.727 312.916 510.711 314.62C510.131 337.398 504.696 359.175 496.724 379.982C496.134 381.527 495.543 383.071 494.935 384.663C480.428 419.698 455.149 450.321 428.227 473.774C426.865 474.961 425.502 476.149 424.098 477.372C403.605 494.952 403.605 494.952 398.68 494.952C398.694 496.433 398.708 497.913 398.722 499.439C398.771 504.942 398.802 510.445 398.827 515.949C398.841 518.329 398.859 520.709 398.882 523.088C398.915 526.513 398.93 529.937 398.942 533.362C398.956 534.423 398.97 535.484 398.984 536.577C398.985 542.088 398.853 546.332 395.994 550.925C392.304 553.003 389.351 552.637 385.219 552.65C383.494 552.658 381.77 552.667 379.992 552.676C378.07 552.678 376.147 552.68 374.224 552.681C372.208 552.688 370.192 552.696 368.176 552.704C362.69 552.724 357.204 552.733 351.718 552.74C348.292 552.745 344.867 552.751 341.441 552.758C330.729 552.778 320.016 552.793 309.304 552.799C296.928 552.805 284.552 552.832 272.176 552.876C262.616 552.909 253.057 552.924 243.497 552.926C237.785 552.927 232.072 552.936 226.359 552.963C220.986 552.988 215.614 552.992 210.241 552.978C208.268 552.977 206.295 552.984 204.322 552.999C201.63 553.018 198.938 553.006 196.247 552.993C194.74 552.995 193.233 552.998 191.68 553C187.35 552.369 185.467 551.42 182.445 547.899C182.119 543.959 182.104 540.642 182.335 536.737C182.404 534.483 182.466 532.229 182.522 529.976C182.554 528.807 182.587 527.639 182.621 526.435C183.425 509.047 183.425 509.047 179.302 492.759C173.49 488.509 166 484 163.489 482.507C154.5 475.5 156.906 478.128 153.821 475.192C152.255 473.741 152.255 473.741 150.658 472.261C146.118 467.876 141.667 463.391 137.258 458.841C135.367 456.916 133.448 455.024 131.477 453.204C97.8344 422.142 74.7769 372.901 70 324.477C69.1957 313.67 68.9447 304.055 72.3136 293.755C76.9814 290.928 80.9036 290.365 86.1483 290.434C88.1155 290.449 88.1155 290.449 90.1224 290.464C92.152 290.502 92.152 290.502 94.2225 290.54C95.6015 290.554 96.9804 290.568 98.4012 290.582C101.793 290.617 105.185 290.667 108.577 290.729C108.37 289.732 108.163 288.735 107.951 287.708C102.23 259.017 105.452 227.26 118.828 201.849C126.399 189.019 135.432 179.691 148.606 174.873C164.849 171.423 181.54 174.628 195.456 184.647C200.034 187.718 202.565 188.204 207.796 187.011C210.098 186.317 212.392 185.591 214.679 184.836C237.569 178.527 256.53 183.921 276.46 196.938C280.386 199.149 283.781 198.536 288.16 198.439C290.034 198.409 291.907 198.38 293.781 198.353C294.764 198.337 295.747 198.321 296.76 198.305C319.377 197.984 340.349 200.353 362.417 206.015C363.347 204.509 364.276 203.004 365.234 201.453C376.047 184.029 387.236 166.947 398.68 150.043C399.531 148.784 400.381 147.525 401.258 146.229C402.09 145.009 402.922 143.789 403.779 142.532C404.9 140.885 404.9 140.885 406.044 139.205C411.823 131.326 419.92 129.025 428.262 133.275ZM420.169 151.555C418.012 154.447 415.931 157.368 413.873 160.348C413.229 161.277 412.585 162.205 411.921 163.161C403.972 174.692 396.294 186.456 388.671 198.261C387.305 200.375 385.929 202.481 384.545 204.58C381.063 209.335 381.063 209.335 379.877 215.091C381.112 215.729 381.112 215.729 382.371 216.379C407.197 229.267 429.454 242.705 449.716 263.5C450.653 264.447 451.59 265.395 452.555 266.372C458.914 273.138 463.705 281.025 468.519 289.217C474.134 287.109 475.86 282.618 478.844 277.209C479.682 275.742 479.682 275.742 480.536 274.246C483.6 269.262 483.6 269.262 484.636 263.5C482.079 261.307 479.432 259.246 476.746 257.26C475.281 256.164 473.816 255.068 472.307 253.939C468.87 251.14 468.87 251.14 465.833 251.398C465.833 249.401 465.833 247.404 465.833 245.347C473.991 248.942 481.235 253.758 488.665 258.961C490.464 256.004 492.253 253.041 494.038 250.074C495.035 248.424 496.032 246.774 497.06 245.075C499.646 241.217 499.646 241.217 499.41 237.783C496.179 235.022 496.179 235.022 492.191 232.299C490.851 231.343 489.511 230.388 488.13 229.403C484.914 226.947 484.914 226.947 481.95 227.193C482.837 225.197 483.723 223.2 484.636 221.142C485.753 222.034 486.87 222.925 488.02 223.843C489.494 224.992 490.968 226.14 492.443 227.288C493.892 228.429 495.341 229.57 496.834 230.745C498.127 231.57 499.421 232.395 500.753 233.244C505.414 231.495 505.92 230.435 508.392 225.87C508.979 224.813 509.566 223.756 510.17 222.667C511.794 219.515 511.794 219.515 511.498 215.091C509.475 213.121 509.475 213.121 506.708 211.475C505.129 210.444 505.129 210.444 503.519 209.393C502.357 208.653 501.195 207.912 499.998 207.149C489.647 200.364 479.522 193.307 469.527 185.876C458.358 177.598 447.116 169.471 435.782 161.483C433.673 159.992 433.673 159.992 431.521 158.47C429.584 157.11 429.584 157.11 427.608 155.721C426.461 154.915 425.315 154.109 424.133 153.278C421.824 151.428 421.824 151.428 420.169 151.555ZM213.336 195.425C212.893 196.424 212.45 197.422 211.993 198.451C212.99 199.509 212.99 199.509 213.49 200.009C213.99 200.509 213.863 200.509 214.679 201.476C216.859 204.062 219.102 206.581 221.394 209.04C222.281 210.039 223.167 211.037 224.081 212.066C227.667 212.128 231.164 212.047 234.741 211.877C249.797 211.545 261.105 215.768 272.431 227.193C275.767 231.581 278.67 236.245 281.581 240.997C292.34 257.943 303.155 274.024 319.439 284.678C320.174 285.21 320.909 285.742 321.666 286.29C329.742 291.609 337.128 291.444 346.3 291.108C347.725 291.08 349.15 291.053 350.618 291.025C354.104 290.954 357.588 290.855 361.074 290.729C357.415 286.608 353.008 284.618 348.399 282.126C316.527 264.504 319.234 263.5 311.5 255.5C310.62 254.59 310 253 309.5 252.5C308.5 251.5 308.5 251.5 307.786 250.476C305.395 245.612 302.257 241.588 299.041 237.405C298.373 236.531 297.706 235.657 297.019 234.756C295.69 233.018 294.36 231.281 293.027 229.546C291.543 227.599 290.089 225.624 288.642 223.642C276.515 207.205 261.64 196.173 242.884 192.4C232.688 191.51 223.143 192.112 213.336 195.425ZM135.202 209.519C120.708 233.534 121.729 263.437 126.036 290.729C131.798 290.729 137.56 290.729 143.496 290.729C143.607 288.015 143.718 285.301 143.832 282.504C144.664 271.463 147.028 263.208 153.402 254.707C163.292 245.424 170.19 243.187 182.912 243.32C192.225 244.296 199.388 248.692 205.865 256.22C212.841 266.481 213.874 278.207 213.336 290.729C216.413 291.024 219.491 291.305 222.57 291.58C224.284 291.738 225.998 291.896 227.764 292.059C231.987 292.631 231.987 292.631 234.825 290.729C233.748 260.456 222.123 234.007 202.591 213.579C189.672 201.422 174.988 193.206 158.013 193.511C147.943 194.584 141.527 200.995 135.202 209.519ZM288.548 210.553C290.829 214.096 292.747 216.293 296.597 217.314C299.985 217.73 303.36 217.995 306.763 218.211C309.326 218.435 311.888 218.666 314.449 218.903C316.384 219.077 316.384 219.077 318.359 219.255C364.856 223.879 411.88 244.163 442.676 285.24C444.344 287.704 444.344 287.704 445.687 290.729C450.119 290.729 454.551 290.729 459.118 290.729C439.236 251.489 391.73 226.144 354.665 214.434C320.561 204.591 320.561 204.591 288.548 210.553ZM232.139 221.142C233.936 226.593 235.682 231.656 238.854 236.27C242.827 237.943 242.827 237.943 247.333 238.634C259.413 241.412 259.413 241.412 264.373 246.859C268.667 254.606 271.472 263.074 274.446 271.536C277.811 280.82 281.136 285.164 288.548 290.729C291.142 291.143 291.142 291.143 293.936 291.025C295.462 291.01 295.462 291.01 297.018 290.995C298.073 290.97 299.129 290.945 300.216 290.919C301.287 290.905 302.358 290.891 303.461 290.877C306.101 290.842 308.741 290.787 311.38 290.729C308.067 286.923 304.688 283.365 301.055 279.951C289.911 268.976 281.182 256.245 272.783 242.622C266.898 233.125 266.898 233.125 258.916 226.059C258.014 225.443 257.112 224.826 256.183 224.192C250.877 221 246.536 220.982 240.617 221.048C239.033 221.061 237.449 221.075 235.817 221.089C233.996 221.116 233.996 221.116 232.139 221.142ZM303.322 227.193C305.366 231.17 307.141 234.521 310.037 237.783C313.079 238.734 313.079 238.734 316.653 239.361C318.695 239.775 318.695 239.775 320.778 240.198C322.248 240.493 323.717 240.788 325.231 241.092C359.803 248.536 390.946 262.23 417.467 288.874C421.091 291.363 423.686 291.182 427.892 291.013C429.214 290.972 430.537 290.931 431.9 290.889C433.406 290.81 433.406 290.81 434.943 290.729C425.568 266.985 393.684 249.255 373.151 239.816C351.331 231.05 326.438 226.219 303.322 227.193ZM244.227 246.859C244.583 248.378 244.94 249.898 245.307 251.463C248.321 264.526 250.664 277.34 252.285 290.729C259.376 290.729 266.468 290.729 273.774 290.729C272.805 288.639 271.835 286.549 270.836 284.395C268.026 278.154 265.841 271.896 263.785 265.296C261.044 257.103 259.069 252.738 252.285 248.372C249.61 247.797 246.924 247.282 244.227 246.859ZM320.782 248.372C326.978 265.649 353.241 276.373 367.506 283.355C380.938 289.577 392.196 292.272 406.738 290.729C385.858 265.479 349.824 254.659 320.782 248.372ZM155.841 265.237C152.138 271.72 151.238 277.532 152.179 285.015C152.416 286.901 152.653 288.787 152.898 290.729C160.142 290.767 167.385 290.794 174.629 290.813C177.096 290.82 179.562 290.831 182.028 290.844C185.565 290.862 189.102 290.87 192.639 290.877C194.303 290.889 194.303 290.889 196.001 290.901C198.646 290.901 201.291 290.823 203.935 290.729C206.1 288.29 205.611 285.683 205.697 282.315C205.593 273.192 203.503 266.46 198.038 259.665C191.508 253.026 184.579 250.611 175.835 250.931C167.302 252.358 161.053 257.72 155.841 265.237ZM87.0874 311.908C87.2777 322.862 87.2777 322.862 89.7736 333.087C90.5614 333.102 91.3493 333.118 92.161 333.134C100.331 333.297 108.5 333.471 116.669 333.65C119.722 333.716 122.774 333.779 125.827 333.839C130.204 333.926 134.581 334.023 138.958 334.121C140.332 334.146 141.706 334.171 143.121 334.198C145.017 334.243 145.017 334.243 146.951 334.289C148.069 334.312 149.188 334.336 150.34 334.36C152.898 334.6 152.898 334.6 154.241 336.112C154.376 339.908 154.429 343.662 154.419 347.458C154.421 348.594 154.422 349.73 154.423 350.9C154.424 353.306 154.422 355.712 154.416 358.118C154.409 361.814 154.416 365.509 154.425 369.204C154.424 371.536 154.422 373.868 154.419 376.201C154.422 377.313 154.425 378.426 154.428 379.572C154.395 387.372 154.395 387.372 152.898 389.059C149.71 389.301 146.557 389.451 143.365 389.538C141.937 389.585 141.937 389.585 140.48 389.633C137.429 389.732 134.377 389.821 131.325 389.91C129.26 389.975 127.196 390.041 125.131 390.108C120.061 390.27 114.99 390.423 109.92 390.572C115.692 407.626 128.438 421.399 139.467 434.442C140.399 435.588 141.33 436.735 142.29 437.917C150.898 448.174 160.874 456.764 171.039 464.976C173.335 466.86 175.592 468.806 177.813 470.802C188.622 479.923 197.158 481.594 210.405 481.439C212.349 481.46 214.292 481.487 216.236 481.518C221.467 481.585 226.697 481.577 231.928 481.55C236.317 481.534 240.705 481.557 245.094 481.579C255.458 481.63 265.822 481.619 276.186 481.569C286.831 481.518 297.474 481.565 308.119 481.663C317.302 481.744 326.485 481.766 335.669 481.74C341.135 481.725 346.599 481.732 352.065 481.794C381.357 483.151 381.357 483.151 406.36 468.392C407.877 466.563 407.877 466.563 409.424 464.697C411.221 463.109 413.04 461.549 414.902 460.058C416.326 458.806 417.746 457.548 419.162 456.282C419.932 455.595 420.703 454.908 421.497 454.2C432.289 444.493 442.26 434.354 451.06 422.34C452.558 420.345 452.558 420.345 454.087 418.31C464.574 405.774 464.574 405.774 469.862 390.572C468.424 390.48 466.985 390.388 465.503 390.294C463.626 390.166 461.75 390.038 459.873 389.91C458.449 389.821 458.449 389.821 456.996 389.73C449.869 389.23 449.869 389.23 448.373 387.546C448.241 385.423 448.198 383.293 448.195 381.164C448.193 379.879 448.192 378.594 448.19 377.27C448.195 375.919 448.2 374.567 448.205 373.175C448.2 371.824 448.195 370.472 448.19 369.08C448.192 367.152 448.192 367.152 448.195 365.186C448.196 363.999 448.198 362.813 448.2 361.59C448.373 358.804 448.373 358.804 449.716 357.291C451.618 357.16 453.525 357.129 455.43 357.143C457.15 357.151 457.15 357.151 458.905 357.158C460.714 357.177 460.714 357.177 462.56 357.196C463.771 357.203 464.982 357.21 466.229 357.217C469.231 357.235 472.233 357.26 475.235 357.291C476.578 364.477 476.578 364.477 476.578 367.88C475.43 367.863 474.282 367.845 473.099 367.827C471.616 367.813 470.132 367.8 468.603 367.786C467.123 367.768 465.643 367.751 464.118 367.733C460.576 367.407 460.576 367.407 459.118 369.393C459.118 371.889 459.118 374.385 459.118 376.957C465.323 376.957 471.528 376.957 477.921 376.957C484.812 362.551 484.812 362.551 487.322 346.702C470.48 346.702 453.638 346.702 436.286 346.702C435.897 360.075 435.897 360.075 435.523 373.449C435.472 375.104 435.42 376.759 435.368 378.464C435.318 380.167 435.269 381.87 435.218 383.625C434.943 387.546 434.943 387.546 433.6 389.059C431.518 389.209 429.431 389.257 427.346 389.26C425.453 389.263 425.453 389.263 423.521 389.266C422.193 389.26 420.865 389.254 419.497 389.248C418.169 389.254 416.842 389.26 415.473 389.266C414.211 389.264 412.949 389.262 411.649 389.26C410.483 389.258 409.317 389.256 408.115 389.255C405.395 389.059 405.395 389.059 404.052 387.546C403.839 384.524 403.715 381.494 403.627 378.464C403.576 376.809 403.525 375.154 403.472 373.449C403.414 371.331 403.356 369.212 403.297 367.029C403.006 356.967 403.006 356.967 402.709 346.702C386.31 346.702 369.911 346.702 353.015 346.702C353.015 356.686 353.015 366.67 353.015 376.957C362.766 376.957 372.517 376.957 382.563 376.957C383.354 369.928 383.354 369.928 381.22 367.88C378.288 367.525 375.348 367.255 372.406 367.029C370.798 366.903 369.189 366.776 367.532 366.645C366.287 366.554 365.042 366.462 363.76 366.368C363.247 363.862 362.801 361.338 362.417 358.804C364.595 356.35 367.01 357.094 370.014 357.09C371.276 357.088 372.538 357.086 373.838 357.084C375.166 357.09 376.494 357.096 377.862 357.102C379.854 357.093 379.854 357.093 381.886 357.084C383.779 357.087 383.779 357.087 385.711 357.09C386.877 357.092 388.043 357.093 389.244 357.095C391.964 357.291 391.964 357.291 393.307 358.804C393.44 360.927 393.483 363.057 393.486 365.186C393.488 366.471 393.489 367.756 393.491 369.08C393.486 370.431 393.481 371.783 393.475 373.175C393.481 374.526 393.486 375.878 393.491 377.27C393.488 379.198 393.488 379.198 393.486 381.164C393.484 382.351 393.483 383.537 393.481 384.76C393.307 387.546 393.307 387.546 391.964 389.059C388.399 389.212 384.87 389.27 381.304 389.26C380.236 389.261 379.168 389.263 378.067 389.264C375.805 389.265 373.542 389.263 371.279 389.256C367.804 389.248 364.329 389.256 360.853 389.266C358.66 389.265 356.467 389.263 354.274 389.26C352.705 389.265 352.705 389.265 351.103 389.269C343.768 389.233 343.768 389.233 342.271 387.546C342.135 383.75 342.083 379.997 342.092 376.201C342.091 375.065 342.09 373.929 342.089 372.758C342.088 370.352 342.09 367.946 342.096 365.54C342.103 361.845 342.096 358.15 342.087 354.455C342.088 352.122 342.09 349.79 342.092 347.458C342.09 346.346 342.087 345.233 342.084 344.087C342.116 336.286 342.116 336.286 343.614 334.6C345.799 334.458 347.989 334.422 350.177 334.428C351.576 334.428 352.974 334.428 354.414 334.428C355.935 334.436 357.456 334.444 359.022 334.452C360.571 334.454 362.119 334.456 363.714 334.458C368.682 334.467 373.65 334.486 378.618 334.505C381.976 334.513 385.335 334.519 388.693 334.526C396.947 334.541 405.2 334.571 413.454 334.6C413.897 348.577 414.34 362.555 414.797 376.957C418.342 376.957 421.888 376.957 425.541 376.957C425.592 375.113 425.592 375.113 425.643 373.232C425.798 367.697 425.963 362.163 426.129 356.629C426.182 354.694 426.234 352.758 426.289 350.764C426.345 348.926 426.401 347.088 426.459 345.195C426.533 342.64 426.533 342.64 426.608 340.033C426.884 336.112 426.884 336.112 428.227 334.6C430.205 334.415 432.19 334.331 434.174 334.289C435.438 334.259 436.702 334.229 438.004 334.198C439.378 334.172 440.751 334.147 442.167 334.121C444.266 334.074 444.266 334.074 446.407 334.026C450.896 333.926 455.384 333.837 459.873 333.749C462.908 333.683 465.943 333.617 468.978 333.551C476.436 333.388 483.894 333.235 491.352 333.087C491.795 326.098 492.238 319.109 492.695 311.908C358.844 311.908 224.994 311.908 87.0874 311.908ZM92.4597 346.702C93.5891 353.062 95.0248 358.368 97.0765 364.382C97.6565 366.104 98.2365 367.826 98.834 369.6C100.277 374.027 100.277 374.027 103.204 376.957C103.286 375.664 103.367 374.371 103.451 373.039C103.563 371.368 103.676 369.697 103.792 367.975C103.901 366.308 104.01 364.64 104.122 362.922C104.547 358.804 104.547 358.804 105.89 357.291C107.792 357.16 109.699 357.129 111.604 357.143C113.324 357.151 113.324 357.151 115.079 357.158C116.285 357.171 117.491 357.183 118.734 357.196C119.945 357.203 121.156 357.21 122.403 357.217C125.405 357.235 128.407 357.26 131.409 357.291C132.752 364.477 132.752 364.477 132.752 367.88C131.716 367.863 130.681 367.845 129.614 367.827C128.268 367.813 126.921 367.8 125.533 367.786C123.523 367.759 123.523 367.759 121.472 367.733C117.999 367.608 117.999 367.608 115.292 369.393C115.292 371.889 115.292 374.385 115.292 376.957C124.599 376.957 133.907 376.957 143.496 376.957C143.496 366.973 143.496 356.988 143.496 346.702C126.654 346.702 109.812 346.702 92.4597 346.702ZM199.905 499.491C199.905 510.473 199.905 521.456 199.905 532.771C259.739 532.771 319.573 532.771 381.22 532.771C381.22 521.789 381.22 510.806 381.22 499.491C321.386 499.491 261.552 499.491 199.905 499.491Z" fill="#D9D4FA"/>
<path d="M364.27 47.6787C367.628 50.8933 367.628 50.8933 369.643 55.2425C368.605 63.0925 364.762 67.6504 360.241 73.3956C357.885 78.7033 358.156 84.2436 358.898 90.036C360.699 94.4485 363.112 98.1994 365.614 102.138C371.841 113.86 373.331 121.618 372.329 135.419C369.589 147.059 362.596 159.14 353.526 165.674C348.817 165.286 346.773 164.133 342.781 161.136C341.606 158.394 341.606 158.394 341.438 155.085C343.339 151.218 345.439 147.569 347.624 143.899C353.201 134.409 353.201 134.409 354.418 123.417C352.816 117.802 349.609 113.425 346.48 108.762C340.748 100.005 338.001 90.0098 339.088 79.1039C341.151 67.0299 345.053 56.9981 353.793 49.3037C357.602 46.7447 359.989 46.4999 364.27 47.6787Z" fill="#D9D4FA"/>
<path d="M302.489 47.6786C305.763 50.9878 305.763 50.9878 307.861 55.2425C308.136 61.1214 305.763 64.0507 302.489 68.29C301.769 69.152 301.049 70.0139 300.307 70.9019C296.887 75.5198 296.508 80.7679 296.556 86.6441C297.458 92.0996 300.18 95.863 303.03 100.294C308.757 109.253 312.287 118.168 311.891 129.368C309.997 142.368 303.809 155.984 294.431 164.161C290.703 165.631 288.54 165.88 284.693 164.918C281.783 162.108 280.883 159.583 280.491 155.298C281.429 149.333 284.924 144.998 288.167 140.312C292.21 134.196 292.644 127.695 291.745 120.291C289.786 116.383 289.786 116.383 288.104 113.945C280.335 101.694 276.213 89.9842 278.314 74.9084C280.654 64.6717 284.873 56.4227 291.745 49.1914C295.606 47.017 298.217 47.1012 302.489 47.6786Z" fill="#D9D4FA"/>
<path d="M240.708 47.6787C243.508 49.8537 244.485 51.6088 245.912 55.0534C246.292 62.3319 240.523 68.0554 236.679 73.3956C234.341 78.6623 234.729 84.2773 235.336 90.036C237.008 94.0813 238.449 97.0859 240.708 100.625C241.303 101.565 241.899 102.505 242.513 103.474C243.108 104.406 243.704 105.338 244.317 106.298C250.091 115.438 249.374 124.553 248.766 135.419C246.935 146.641 240.122 156.501 232.566 163.819C229.963 165.674 229.963 165.674 226.522 165.39C223.248 164.161 223.248 164.161 219.219 161.136C218.044 158.394 218.044 158.394 217.876 155.085C219.776 151.218 221.877 147.569 224.061 143.899C229.638 134.409 229.638 134.409 230.855 123.417C229.253 117.802 226.046 113.425 222.917 108.762C217.176 99.9903 214.369 89.9209 215.573 78.9976C217.708 66.9504 222.317 57.8995 229.963 49.1914C233.722 47.0745 236.551 47.2965 240.708 47.6787Z" fill="#D9D4FA"/>
</svg>
