<svg width="600" height="600" viewBox="0 0 600 600" fill="none" xmlns="http://www.w3.org/2000/svg">
<path d="M233.175 314.472C233.814 314.472 234.453 314.471 235.112 314.471C235.837 314.464 236.563 314.457 237.311 314.45C238.094 314.459 238.876 314.467 239.682 314.476C240.486 314.474 241.289 314.473 242.117 314.472C243.816 314.474 245.515 314.482 247.214 314.498C249.822 314.519 252.429 314.513 255.038 314.503C256.686 314.508 258.335 314.514 259.983 314.522C261.159 314.519 261.159 314.519 262.359 314.516C263.444 314.53 263.444 314.53 264.551 314.544C265.509 314.55 265.509 314.55 266.486 314.557C266.996 314.652 267.507 314.748 268.032 314.846C269.732 317.457 269.664 318.479 269.635 321.558C269.63 322.428 269.625 323.297 269.621 324.193C269.608 325.101 269.596 326.009 269.584 326.945C269.577 327.862 269.57 328.778 269.564 329.723C269.546 331.989 269.522 334.255 269.492 336.521C271.419 336.521 273.346 336.521 275.332 336.521C275.32 335.917 275.309 335.314 275.297 334.692C275.252 331.97 275.223 329.247 275.195 326.524C275.177 325.574 275.158 324.625 275.139 323.646C275.132 322.74 275.125 321.835 275.118 320.901C275.106 320.064 275.095 319.226 275.083 318.363C275.206 317.362 275.206 317.362 275.332 316.341C277.702 314.723 278.36 314.658 281.097 314.653C281.823 314.648 282.549 314.643 283.297 314.639C284.47 314.643 284.47 314.643 285.668 314.648C286.471 314.646 287.275 314.645 288.103 314.643C289.802 314.642 291.501 314.645 293.2 314.651C295.808 314.659 298.415 314.652 301.023 314.642C302.672 314.643 304.32 314.645 305.969 314.648C306.753 314.645 307.537 314.642 308.344 314.639C309.43 314.646 309.43 314.646 310.537 314.653C311.175 314.654 311.814 314.655 312.472 314.657C314.018 314.846 314.018 314.846 315.478 316.341C315.867 319.596 315.924 322.872 316.02 326.148C316.071 327.772 316.141 329.395 316.212 331.019C316.247 332.056 316.281 333.093 316.313 334.13C316.362 335.542 316.362 335.542 316.413 336.983C316.183 339.82 315.936 341.171 314.018 343.248C312.002 343.599 310.438 343.703 308.427 343.639C307.882 343.635 307.338 343.632 306.777 343.628C305.039 343.612 303.302 343.57 301.564 343.528C300.39 343.515 299.217 343.505 298.044 343.496C289.487 343.394 289.487 343.394 287.741 342.5C286.84 339.735 286.876 337.158 286.874 334.279C286.865 333.737 286.856 333.196 286.847 332.638C286.839 329.789 286.891 328.484 288.47 326.057C289.976 325.803 289.976 325.803 291.806 325.838C292.46 325.846 293.114 325.853 293.788 325.86C294.814 325.888 294.814 325.888 295.861 325.917C296.551 325.927 297.24 325.937 297.951 325.948C299.657 325.974 301.363 326.011 303.069 326.057C303.792 327.907 303.792 327.907 304.529 329.794C303.571 331.289 303.571 331.289 301.609 332.784C298.917 333.054 296.277 332.955 293.58 332.784C293.58 334.017 293.58 335.25 293.58 336.521C298.879 336.521 304.179 336.521 309.638 336.521C309.638 331.588 309.638 326.655 309.638 321.573C300.485 321.573 291.332 321.573 281.901 321.573C281.959 327.588 281.959 327.588 282.033 333.602C282.036 334.353 282.04 335.105 282.044 335.879C282.051 336.646 282.059 337.413 282.067 338.203C281.9 340.273 281.481 341.487 280.441 343.248C277.795 343.312 275.15 343.352 272.503 343.388C271.75 343.406 270.996 343.425 270.219 343.445C269.5 343.452 268.78 343.459 268.038 343.466C267.373 343.478 266.708 343.49 266.023 343.502C265.211 343.376 265.211 343.376 264.383 343.248C262.683 340.637 262.751 339.615 262.78 336.536C262.784 335.752 262.788 334.969 262.791 334.161C262.805 333.167 262.818 332.173 262.832 331.149C262.862 327.989 262.892 324.829 262.923 321.573C254.011 321.573 245.098 321.573 235.916 321.573C235.916 326.506 235.916 331.439 235.916 336.521C241.456 336.521 246.996 336.521 252.704 336.521C252.343 334.671 252.343 334.671 251.974 332.784C246.916 332.414 246.916 332.414 241.755 332.037C241.273 330.803 240.791 329.57 240.295 328.3C240.777 327.56 241.259 326.82 241.755 326.057C243.395 325.803 243.395 325.803 245.41 325.838C246.13 325.846 246.85 325.853 247.592 325.86C248.345 325.879 249.099 325.898 249.875 325.917C251.014 325.932 251.014 325.932 252.176 325.948C254.056 325.974 255.934 326.011 257.813 326.057C259.323 328.885 259.491 330.991 259.501 334.232C259.514 335.133 259.526 336.034 259.538 336.962C259.24 339.828 258.913 341.063 257.084 343.248C254.951 343.587 253.248 343.685 251.121 343.612C250.251 343.605 250.251 343.605 249.363 343.596C247.511 343.576 245.66 343.529 243.808 343.481C242.552 343.462 241.296 343.445 240.04 343.43C236.961 343.389 233.884 343.324 230.806 343.248C228.489 339.441 229.102 334.945 229.116 330.617C229.118 329.052 229.101 327.488 229.082 325.923C229.081 324.925 229.08 323.926 229.081 322.928C229.079 322.023 229.077 321.118 229.074 320.186C229.419 317.203 230.124 315.169 233.175 314.472Z" fill="#853EFB"/>
<path d="M369.964 216.625C374.213 219.134 378.366 221.772 382.491 224.489C383.91 225.418 385.329 226.348 386.748 227.277C387.469 227.751 388.19 228.224 388.934 228.712C392.424 231.001 395.92 233.281 399.416 235.56C400.081 235.994 400.745 236.428 401.43 236.875C404.483 238.866 407.541 240.846 410.622 242.792C411.152 243.127 411.682 243.463 412.229 243.808C413.194 244.417 414.161 245.023 415.131 245.626C423.376 250.826 423.376 250.826 424.69 254.805C426.125 261.94 421.938 267.228 418.3 272.901C416.806 275.21 415.299 277.51 413.784 279.805C411.72 282.936 409.707 286.098 407.719 289.279C407.44 289.726 407.16 290.173 406.873 290.633C406.241 291.645 405.611 292.657 404.982 293.67C406.344 295.065 408.802 294.601 410.656 294.663C412.281 295.165 412.281 295.165 413.567 296.715C414.667 299.376 414.831 301.711 414.79 304.554C414.782 305.379 414.782 305.379 414.773 306.221C414.458 317.475 411.504 328.234 407.172 338.514C406.851 339.277 406.53 340.04 406.199 340.826C398.315 358.136 384.577 373.266 369.945 384.853C369.205 385.44 368.464 386.026 367.701 386.631C356.563 395.316 356.563 395.316 353.887 395.316C353.894 396.048 353.902 396.779 353.91 397.533C353.936 400.252 353.953 402.971 353.967 405.69C353.974 406.866 353.984 408.042 353.997 409.217C354.015 410.909 354.023 412.601 354.029 414.293C354.037 414.817 354.044 415.342 354.052 415.882C354.053 418.604 353.981 420.701 352.427 422.97C350.421 423.997 348.817 423.817 346.571 423.823C345.634 423.827 344.696 423.831 343.73 423.836C342.686 423.836 341.641 423.837 340.596 423.838C339.5 423.842 338.404 423.845 337.309 423.849C334.327 423.859 331.345 423.864 328.364 423.867C326.502 423.869 324.64 423.873 322.779 423.876C316.957 423.886 311.135 423.893 305.313 423.896C298.587 423.9 291.861 423.913 285.135 423.934C279.939 423.95 274.744 423.958 269.549 423.959C266.444 423.96 263.339 423.964 260.234 423.978C257.314 423.99 254.394 423.992 251.474 423.985C250.402 423.984 249.33 423.988 248.257 423.995C246.795 424.004 245.332 423.999 243.869 423.992C243.05 423.993 242.231 423.995 241.387 423.996C239.033 423.684 238.01 423.215 236.368 421.475C236.191 419.529 236.182 417.89 236.308 415.96C236.346 414.847 236.379 413.734 236.41 412.62C236.427 412.043 236.445 411.466 236.463 410.871C236.9 402.28 236.9 402.28 234.659 394.233C231.501 392.133 227.43 389.905 226.066 389.168C221.18 385.706 222.488 387.004 220.811 385.554C219.96 384.837 219.96 384.837 219.092 384.106C216.625 381.939 214.206 379.723 211.81 377.475C210.782 376.524 209.739 375.589 208.668 374.69C190.384 359.344 177.853 335.016 175.256 311.091C174.819 305.751 174.683 301.001 176.514 295.912C179.051 294.515 181.182 294.237 184.033 294.272C185.102 294.279 185.102 294.279 186.193 294.286C187.296 294.305 187.296 294.305 188.421 294.324C189.17 294.331 189.92 294.338 190.692 294.345C192.535 294.362 194.379 294.387 196.222 294.418C196.11 293.925 195.997 293.432 195.882 292.925C192.773 278.75 194.524 263.06 201.793 250.505C205.908 244.166 210.817 239.558 217.977 237.177C226.805 235.473 235.876 237.056 243.439 242.006C245.927 243.524 247.303 243.764 250.145 243.174C251.397 242.831 252.644 242.473 253.886 242.1C266.326 238.983 276.631 241.647 287.463 248.079C289.597 249.171 291.442 248.868 293.821 248.82C294.84 248.805 295.858 248.791 296.877 248.778C297.411 248.77 297.945 248.762 298.495 248.754C310.788 248.595 322.185 249.766 334.179 252.563C334.684 251.819 335.189 251.076 335.71 250.309C341.586 241.701 347.667 233.261 353.887 224.909C354.349 224.288 354.812 223.666 355.288 223.025C355.74 222.422 356.192 221.82 356.658 221.199C357.268 220.385 357.268 220.385 357.889 219.555C361.03 215.662 365.43 214.526 369.964 216.625ZM365.566 225.657C364.393 227.086 363.262 228.528 362.144 230.001C361.794 230.46 361.444 230.918 361.083 231.391C356.763 237.088 352.59 242.9 348.447 248.732C347.705 249.777 346.957 250.817 346.205 251.854C344.313 254.203 344.313 254.203 343.668 257.048C344.339 257.363 344.339 257.362 345.023 257.684C358.515 264.051 370.612 270.69 381.624 280.964C382.133 281.433 382.642 281.901 383.167 282.383C386.623 285.726 389.226 289.623 391.843 293.67C394.894 292.629 395.833 290.41 397.454 287.738C397.91 287.013 397.91 287.013 398.374 286.274C400.039 283.811 400.039 283.811 400.602 280.964C399.213 279.881 397.774 278.863 396.314 277.881C395.518 277.34 394.722 276.798 393.902 276.241C392.033 274.858 392.033 274.858 390.383 274.985C390.383 273.999 390.383 273.012 390.383 271.996C394.817 273.772 398.754 276.151 402.792 278.722C403.769 277.261 404.742 275.797 405.712 274.331C406.254 273.516 406.796 272.701 407.354 271.861C408.76 269.955 408.76 269.955 408.631 268.259C406.876 266.895 406.876 266.895 404.708 265.549C403.98 265.077 403.252 264.605 402.501 264.119C400.753 262.905 400.753 262.905 399.142 263.027C399.624 262.04 400.106 261.054 400.602 260.037C401.209 260.478 401.816 260.918 402.441 261.371C403.242 261.939 404.043 262.507 404.845 263.074C405.632 263.637 406.42 264.201 407.231 264.781C407.934 265.189 408.637 265.597 409.361 266.016C411.894 265.152 412.169 264.628 413.513 262.373C413.832 261.851 414.151 261.328 414.479 260.79C415.362 259.233 415.362 259.233 415.201 257.048C414.102 256.074 414.102 256.074 412.598 255.261C411.74 254.752 411.74 254.752 410.865 254.232C410.233 253.866 409.602 253.501 408.951 253.124C403.325 249.772 397.823 246.285 392.39 242.613C386.32 238.524 380.211 234.508 374.051 230.562C372.905 229.825 372.905 229.825 371.735 229.073C370.683 228.401 370.683 228.401 369.609 227.715C368.985 227.317 368.362 226.918 367.72 226.508C366.465 225.594 366.465 225.594 365.566 225.657ZM253.156 247.331C252.916 247.825 252.675 248.318 252.427 248.826C252.968 249.349 252.968 249.349 253.24 249.596C253.512 249.843 253.443 249.843 253.886 250.321C255.071 251.598 256.29 252.843 257.536 254.058C258.018 254.551 258.5 255.045 258.996 255.553C260.945 255.584 262.845 255.544 264.79 255.459C272.972 255.296 279.118 257.382 285.273 263.027C287.087 265.195 288.664 267.499 290.246 269.847C296.094 278.219 301.971 286.164 310.821 291.428C311.22 291.691 311.62 291.954 312.032 292.224C316.421 294.852 320.435 294.771 325.419 294.604C326.194 294.591 326.968 294.577 327.766 294.564C329.661 294.529 331.554 294.48 333.449 294.418C331.46 292.381 329.065 291.398 326.56 290.167C309.238 281.461 310.71 280.965 306.506 277.012C306.028 276.562 305.691 275.777 305.419 275.53C304.876 275.036 304.876 275.036 304.488 274.53C303.188 272.127 301.483 270.138 299.735 268.072C299.372 267.64 299.01 267.208 298.636 266.763C297.914 265.904 297.191 265.046 296.467 264.189C295.66 263.227 294.87 262.251 294.084 261.272C287.493 253.151 279.408 247.701 269.215 245.837C263.674 245.397 258.486 245.694 253.156 247.331ZM210.692 254.295C202.815 266.16 203.37 280.933 205.711 294.418C208.842 294.418 211.974 294.418 215.2 294.418C215.26 293.076 215.321 291.735 215.383 290.354C215.835 284.899 217.12 280.82 220.583 276.62C225.958 272.034 229.708 270.928 236.622 270.994C241.683 271.476 245.576 273.649 249.096 277.368C252.888 282.437 253.449 288.23 253.156 294.418C254.829 294.563 256.502 294.702 258.175 294.838C259.106 294.916 260.038 294.994 260.997 295.074C263.293 295.357 263.293 295.357 264.835 294.418C264.25 279.461 257.932 266.393 247.317 256.3C240.295 250.294 232.315 246.235 223.09 246.386C217.617 246.916 214.13 250.083 210.692 254.295ZM294.032 254.805C295.272 256.556 296.314 257.641 298.407 258.146C300.248 258.351 302.083 258.482 303.932 258.589C305.325 258.7 306.717 258.814 308.109 258.931C309.161 259.017 309.161 259.017 310.234 259.105C335.504 261.389 361.061 271.411 377.798 291.705C378.704 292.923 378.704 292.923 379.434 294.418C381.843 294.418 384.252 294.418 386.734 294.418C375.928 275.03 350.109 262.508 329.965 256.723C311.431 251.86 311.431 251.86 294.032 254.805ZM263.375 260.037C264.352 262.73 265.301 265.232 267.025 267.511C269.184 268.338 269.184 268.338 271.633 268.679C278.198 270.052 278.198 270.052 280.894 272.743C283.227 276.571 284.752 280.754 286.368 284.935C288.197 289.522 290.004 291.668 294.032 294.418C295.442 294.622 295.442 294.622 296.961 294.564C297.79 294.556 297.79 294.556 298.636 294.549C299.209 294.536 299.783 294.524 300.374 294.511C300.956 294.504 301.538 294.498 302.137 294.491C303.572 294.473 305.007 294.446 306.441 294.418C304.641 292.537 302.804 290.779 300.83 289.092C294.773 283.67 290.029 277.38 285.464 270.65C282.266 265.957 282.266 265.957 277.928 262.466C277.438 262.162 276.948 261.857 276.443 261.544C273.559 259.967 271.2 259.958 267.983 259.991C267.122 259.997 266.261 260.004 265.374 260.011C264.385 260.024 264.385 260.024 263.375 260.037ZM302.062 263.027C303.173 264.992 304.137 266.647 305.711 268.259C307.364 268.729 307.364 268.729 309.307 269.038C310.417 269.243 310.417 269.243 311.549 269.452C312.348 269.598 313.146 269.743 313.969 269.894C332.758 273.571 349.684 280.337 364.097 293.501C366.067 294.731 367.477 294.641 369.763 294.558C370.482 294.538 371.2 294.517 371.941 294.496C372.76 294.457 372.76 294.457 373.595 294.418C368.5 282.687 351.171 273.927 340.012 269.263C328.154 264.932 314.625 262.545 302.062 263.027ZM269.945 272.743C270.139 273.494 270.332 274.244 270.532 275.017C272.17 281.472 273.443 287.802 274.324 294.418C278.178 294.418 282.032 294.418 286.003 294.418C285.476 293.385 284.949 292.352 284.407 291.288C282.879 288.204 281.692 285.113 280.574 281.852C279.084 277.804 278.011 275.648 274.324 273.49C272.871 273.206 271.411 272.952 269.945 272.743ZM311.551 273.49C314.919 282.026 329.192 287.325 336.944 290.774C344.245 293.848 350.363 295.18 358.266 294.418C346.918 281.942 327.335 276.597 311.551 273.49ZM221.909 281.823C219.897 285.026 219.407 287.897 219.919 291.594C220.048 292.526 220.177 293.458 220.31 294.418C224.246 294.436 228.183 294.45 232.12 294.459C233.461 294.462 234.801 294.468 236.141 294.474C238.064 294.483 239.986 294.487 241.908 294.491C242.813 294.496 242.813 294.496 243.735 294.502C245.173 294.502 246.61 294.464 248.047 294.418C249.224 293.212 248.958 291.924 249.005 290.26C248.948 285.753 247.812 282.427 244.842 279.07C241.293 275.79 237.528 274.597 232.775 274.755C228.138 275.46 224.741 278.109 221.909 281.823ZM184.543 304.881C184.646 310.293 184.646 310.293 186.003 315.345C186.431 315.352 186.859 315.36 187.3 315.368C191.74 315.449 196.18 315.534 200.62 315.623C202.279 315.656 203.938 315.687 205.597 315.716C207.976 315.759 210.355 315.807 212.734 315.856C213.48 315.868 214.227 315.881 214.996 315.894C216.026 315.916 216.026 315.916 217.077 315.939C217.685 315.95 218.293 315.962 218.919 315.974C220.31 316.092 220.31 316.092 221.04 316.84C221.113 318.715 221.142 320.569 221.136 322.445C221.137 323.006 221.138 323.567 221.139 324.146C221.139 325.334 221.138 326.523 221.135 327.712C221.131 329.538 221.135 331.363 221.139 333.189C221.139 334.341 221.138 335.493 221.136 336.646C221.138 337.195 221.139 337.745 221.141 338.311C221.123 342.165 221.123 342.165 220.31 342.999C218.577 343.118 216.863 343.192 215.129 343.235C214.353 343.258 214.353 343.258 213.561 343.282C211.902 343.331 210.244 343.375 208.585 343.419C207.463 343.451 206.341 343.484 205.219 343.517C202.463 343.597 199.708 343.673 196.952 343.746C200.089 352.172 207.016 358.977 213.01 365.421C213.517 365.987 214.023 366.554 214.544 367.137C219.223 372.205 224.645 376.449 230.169 380.506C231.417 381.437 232.644 382.399 233.85 383.385C239.725 387.891 244.364 388.717 251.564 388.64C252.62 388.65 253.676 388.664 254.732 388.679C257.576 388.712 260.418 388.708 263.261 388.695C265.646 388.687 268.031 388.698 270.416 388.709C276.049 388.734 281.681 388.729 287.314 388.704C293.1 388.679 298.883 388.702 304.669 388.751C309.66 388.791 314.651 388.802 319.642 388.789C322.613 388.782 325.582 388.785 328.553 388.815C344.472 389.486 344.472 389.486 358.061 382.194C358.885 381.29 358.885 381.29 359.726 380.369C360.703 379.584 361.691 378.813 362.703 378.077C363.477 377.458 364.249 376.836 365.018 376.211C365.437 375.872 365.856 375.532 366.287 375.183C372.153 370.387 377.572 365.377 382.354 359.441C383.168 358.456 383.168 358.456 383.999 357.45C389.699 351.257 389.699 351.257 392.573 343.746C391.791 343.701 391.009 343.655 390.204 343.609C389.184 343.546 388.164 343.482 387.144 343.419C386.37 343.375 386.37 343.375 385.58 343.33C381.707 343.083 381.707 343.083 380.894 342.251C380.822 341.202 380.799 340.15 380.797 339.098C380.796 338.463 380.795 337.828 380.794 337.174C380.797 336.506 380.8 335.839 380.803 335.151C380.8 334.483 380.797 333.816 380.794 333.128C380.796 332.175 380.796 332.175 380.797 331.204C380.798 330.617 380.799 330.031 380.8 329.427C380.894 328.051 380.894 328.051 381.624 327.303C382.657 327.238 383.694 327.223 384.729 327.23C385.664 327.234 385.664 327.234 386.618 327.237C387.601 327.247 387.601 327.247 388.604 327.256C389.262 327.26 389.92 327.263 390.598 327.267C392.23 327.276 393.861 327.288 395.493 327.303C396.223 330.853 396.223 330.853 396.223 332.535C395.599 332.526 394.975 332.518 394.332 332.509C393.526 332.502 392.719 332.495 391.889 332.488C391.084 332.48 390.28 332.471 389.451 332.462C387.526 332.301 387.526 332.301 386.734 333.282C386.734 334.516 386.734 335.749 386.734 337.019C390.106 337.019 393.478 337.019 396.953 337.019C400.698 329.902 400.698 329.902 402.062 322.071C392.909 322.071 383.755 322.071 374.325 322.071C374.114 328.679 374.114 328.679 373.91 335.286C373.882 336.104 373.854 336.922 373.826 337.764C373.799 338.605 373.772 339.447 373.745 340.314C373.595 342.251 373.595 342.251 372.865 342.999C371.734 343.073 370.6 343.096 369.466 343.098C368.437 343.099 368.437 343.099 367.388 343.101C366.666 343.098 365.944 343.095 365.201 343.092C364.479 343.095 363.757 343.098 363.014 343.101C362.328 343.1 361.642 343.099 360.935 343.098C360.301 343.097 359.668 343.096 359.015 343.095C357.536 342.999 357.536 342.999 356.806 342.251C356.691 340.758 356.623 339.261 356.575 337.764C356.548 336.946 356.52 336.129 356.491 335.286C356.46 334.24 356.428 333.193 356.396 332.115C356.238 327.143 356.238 327.143 356.076 322.071C347.164 322.071 338.252 322.071 329.069 322.071C329.069 327.004 329.069 331.937 329.069 337.019C334.368 337.019 339.668 337.019 345.128 337.019C345.558 333.547 345.558 333.547 344.398 332.535C342.804 332.359 341.206 332.226 339.607 332.115C338.733 332.052 337.859 331.989 336.959 331.925C336.282 331.879 335.606 331.834 334.909 331.788C334.63 330.55 334.387 329.303 334.179 328.051C335.363 326.838 336.675 327.206 338.307 327.204C338.993 327.203 339.679 327.202 340.386 327.201C341.108 327.204 341.829 327.207 342.573 327.21C343.655 327.205 343.655 327.205 344.76 327.201C345.789 327.202 345.789 327.202 346.838 327.204C347.472 327.205 348.106 327.206 348.759 327.206C350.237 327.303 350.237 327.303 350.967 328.051C351.039 329.1 351.062 330.152 351.064 331.204C351.065 331.839 351.066 332.473 351.067 333.128C351.064 333.795 351.061 334.463 351.058 335.151C351.061 335.819 351.064 336.486 351.067 337.174C351.065 338.126 351.065 338.126 351.064 339.098C351.063 339.684 351.062 340.271 351.061 340.875C350.967 342.251 350.967 342.251 350.237 342.999C348.299 343.074 346.381 343.103 344.443 343.098C343.863 343.099 343.282 343.099 342.684 343.1C341.455 343.1 340.225 343.099 338.995 343.096C337.106 343.092 335.218 343.096 333.329 343.101C332.137 343.1 330.945 343.099 329.753 343.098C328.9 343.1 328.9 343.1 328.03 343.102C324.044 343.084 324.044 343.084 323.23 342.251C323.156 340.376 323.128 338.521 323.133 336.646C323.132 336.084 323.131 335.523 323.131 334.945C323.13 333.756 323.131 332.568 323.135 331.379C323.138 329.553 323.135 327.728 323.13 325.902C323.13 324.75 323.131 323.597 323.133 322.445C323.131 321.895 323.13 321.346 323.128 320.779C323.146 316.925 323.146 316.925 323.96 316.092C325.147 316.022 326.337 316.004 327.527 316.007C328.287 316.007 329.046 316.007 329.829 316.007C330.656 316.011 331.482 316.015 332.334 316.019C333.175 316.02 334.017 316.021 334.884 316.022C337.584 316.027 340.283 316.036 342.983 316.045C344.809 316.049 346.634 316.053 348.459 316.056C352.945 316.063 357.43 316.078 361.916 316.092C362.157 322.998 362.398 329.904 362.646 337.019C364.573 337.019 366.5 337.019 368.485 337.019C368.513 336.108 368.513 336.108 368.541 335.179C368.625 332.444 368.715 329.71 368.805 326.976C368.833 326.02 368.862 325.064 368.892 324.079C368.922 323.171 368.953 322.262 368.984 321.327C369.024 320.065 369.024 320.065 369.065 318.777C369.215 316.84 369.215 316.84 369.945 316.092C371.02 316.001 372.099 315.959 373.177 315.939C373.864 315.924 374.551 315.909 375.258 315.894C376.005 315.881 376.752 315.869 377.521 315.856C378.662 315.832 378.662 315.832 379.825 315.809C382.265 315.76 384.705 315.716 387.144 315.672C388.794 315.639 390.443 315.607 392.093 315.574C396.146 315.494 400.199 315.418 404.252 315.345C404.493 311.892 404.734 308.439 404.982 304.881C332.237 304.881 259.492 304.881 184.543 304.881ZM187.463 322.071C188.077 325.214 188.857 327.835 189.972 330.807C190.287 331.657 190.602 332.508 190.927 333.385C191.711 335.572 191.711 335.572 193.302 337.019C193.346 336.381 193.391 335.742 193.436 335.084C193.497 334.258 193.559 333.432 193.622 332.582C193.681 331.758 193.74 330.934 193.801 330.085C194.032 328.051 194.032 328.051 194.762 327.303C195.795 327.238 196.832 327.223 197.867 327.23C198.802 327.234 198.802 327.234 199.756 327.237C200.411 327.244 201.067 327.25 201.742 327.256C202.4 327.26 203.058 327.263 203.736 327.267C205.368 327.276 206.999 327.288 208.631 327.303C209.361 330.853 209.361 330.853 209.361 332.535C208.798 332.526 208.235 332.518 207.656 332.509C206.924 332.502 206.192 332.495 205.437 332.488C204.345 332.475 204.345 332.475 203.23 332.462C201.343 332.4 201.343 332.4 199.872 333.282C199.872 334.516 199.872 335.749 199.872 337.019C204.93 337.019 209.988 337.019 215.2 337.019C215.2 332.087 215.2 327.154 215.2 322.071C206.047 322.071 196.893 322.071 187.463 322.071ZM245.857 397.559C245.857 402.985 245.857 408.411 245.857 414.001C278.376 414.001 310.894 414.001 344.398 414.001C344.398 408.575 344.398 403.149 344.398 397.559C311.879 397.559 279.361 397.559 245.857 397.559Z" fill="#853EFB"/>
<path d="M335.186 174.335C337.011 175.924 337.011 175.924 338.106 178.072C337.542 181.951 335.453 184.203 332.996 187.041C331.716 189.663 331.863 192.401 332.266 195.262C333.245 197.443 334.556 199.296 335.916 201.242C339.3 207.033 340.11 210.866 339.566 217.684C338.076 223.435 334.276 229.404 329.347 232.632C326.787 232.441 325.677 231.871 323.507 230.39C322.868 229.036 322.868 229.036 322.777 227.401C323.81 225.49 324.952 223.687 326.139 221.874C329.17 217.186 329.17 217.186 329.831 211.755C328.961 208.981 327.218 206.818 325.517 204.514C322.402 200.188 320.909 195.25 321.5 189.861C322.621 183.896 324.742 178.94 329.492 175.138C331.562 173.874 332.859 173.753 335.186 174.335Z" fill="#853EFB"/>
<path d="M301.609 174.335C303.388 175.97 303.388 175.97 304.529 178.072C304.678 180.977 303.388 182.424 301.609 184.519C301.218 184.944 300.826 185.37 300.423 185.809C298.565 188.091 298.358 190.683 298.384 193.587C298.875 196.282 300.354 198.141 301.903 200.331C305.016 204.757 306.934 209.161 306.719 214.695C305.69 221.118 302.326 227.845 297.23 231.885C295.204 232.611 294.028 232.734 291.938 232.259C290.356 230.871 289.867 229.623 289.654 227.506C290.163 224.559 292.063 222.417 293.825 220.102C296.023 217.08 296.258 213.868 295.77 210.21C294.705 208.279 294.705 208.279 293.791 207.075C289.569 201.022 287.329 195.237 288.47 187.788C289.742 182.731 292.035 178.655 295.77 175.083C297.868 174.008 299.287 174.05 301.609 174.335Z" fill="#853EFB"/>
<path d="M268.032 174.335C269.554 175.41 270.085 176.277 270.861 177.979C271.068 181.575 267.932 184.403 265.843 187.041C264.572 189.643 264.783 192.417 265.113 195.262C266.021 197.261 266.805 198.746 268.032 200.494C268.356 200.959 268.68 201.423 269.013 201.901C269.337 202.362 269.661 202.823 269.994 203.297C273.132 207.813 272.742 212.316 272.412 217.684C271.417 223.229 267.714 228.1 263.607 231.716C262.193 232.632 262.193 232.632 260.323 232.492C258.543 231.885 258.543 231.885 256.354 230.39C255.715 229.036 255.715 229.036 255.624 227.401C256.656 225.49 257.798 223.687 258.985 221.874C262.016 217.186 262.016 217.186 262.678 211.755C261.807 208.981 260.064 206.818 258.364 204.514C255.243 200.181 253.718 195.206 254.372 189.809C255.533 183.857 258.038 179.385 262.193 175.083C264.236 174.037 265.773 174.146 268.032 174.335Z" fill="#853EFB"/>
<circle cx="300" cy="300" r="197.5" stroke="#853EFB" stroke-width="11"/>
</svg>
